<mxfile><diagram id="1cZjEg6DXysJplwQPbBC" name="Page-1"><mxGraphModel dx="728" dy="578" grid="1" gridSize="10" guides="1" tooltips="1" connect="1" arrows="1" fold="1" page="1" pageScale="1" pageWidth="1169" pageHeight="827" math="0" shadow="0"><root><mxCell id="0"/><mxCell id="1" parent="0"/><mxCell id="nT7wJt8Zx3f6JMFJM2ii-21" style="edgeStyle=orthogonalEdgeStyle;rounded=0;orthogonalLoop=1;jettySize=auto;html=1;exitX=0.5;exitY=1;exitDx=0;exitDy=0;entryX=0.5;entryY=0;entryDx=0;entryDy=0;" parent="1" source="nT7wJt8Zx3f6JMFJM2ii-1" target="nT7wJt8Zx3f6JMFJM2ii-19" edge="1"><mxGeometry relative="1" as="geometry"/></mxCell><mxCell id="nT7wJt8Zx3f6JMFJM2ii-1" value="&lt;p style=&quot;margin: 0px ; margin-top: 4px ; text-align: center&quot;&gt;&lt;b&gt;UserDataModel&lt;/b&gt;&lt;/p&gt;&lt;hr size=&quot;1&quot;&gt;&lt;p style=&quot;margin: 0px ; margin-left: 4px&quot;&gt;+ userName: String&lt;/p&gt;&lt;p style=&quot;margin: 0px ; margin-left: 4px&quot;&gt;+ age: int?&lt;/p&gt;&lt;p style=&quot;margin: 0px ; margin-left: 4px&quot;&gt;+ location: Location?&lt;/p&gt;&lt;p style=&quot;margin: 0px ; margin-left: 4px&quot;&gt;+ height: int (float?)&lt;/p&gt;&lt;p style=&quot;margin: 0px ; margin-left: 4px&quot;&gt;+ weight: int (float?)&lt;/p&gt;&lt;p style=&quot;margin: 0px ; margin-left: 4px&quot;&gt;+ sex: String?&lt;/p&gt;&lt;p style=&quot;margin: 0px ; margin-left: 4px&quot;&gt;+ profilePic: Picture?&lt;/p&gt;&lt;p style=&quot;margin: 0px ; margin-left: 4px&quot;&gt;+ activityLevel: String?&lt;/p&gt;&lt;p style=&quot;margin: 0px ; margin-left: 4px&quot;&gt;&lt;br&gt;&lt;/p&gt;&lt;p style=&quot;margin: 0px ; margin-left: 4px&quot;&gt;&lt;br&gt;&lt;/p&gt;" style="verticalAlign=top;align=left;overflow=fill;fontSize=12;fontFamily=Helvetica;html=1;" parent="1" vertex="1"><mxGeometry x="40" y="40" width="490" height="170" as="geometry"/></mxCell><mxCell id="nT7wJt8Zx3f6JMFJM2ii-19" value="&lt;p style=&quot;margin: 0px ; margin-top: 4px ; text-align: center&quot;&gt;&lt;b&gt;UserModel&lt;/b&gt;&lt;/p&gt;&lt;hr size=&quot;1&quot;&gt;&lt;p style=&quot;margin: 0px ; margin-left: 4px&quot;&gt;&lt;span&gt;+ calculateBMR(): int //Basal Metabolic Rate&lt;/span&gt;&lt;br&gt;&lt;/p&gt;&lt;p style=&quot;margin: 0px ; margin-left: 4px&quot;&gt;+ changeGoal(int weightChangePerWeek):&lt;/p&gt;&lt;p style=&quot;margin: 0px ; margin-left: 4px&quot;&gt;+ updateActivityLevel():&lt;/p&gt;&lt;p style=&quot;margin: 0px ; margin-left: 4px&quot;&gt;+ calculateCaloriesNeededForGoal():&lt;/p&gt;&lt;p style=&quot;margin: 0px ; margin-left: 4px&quot;&gt;+ getWeather(location)&lt;/p&gt;&lt;p style=&quot;margin: 0px ; margin-left: 4px&quot;&gt;+ showNearbyHikes(location)&lt;/p&gt;&lt;p style=&quot;margin: 0px ; margin-left: 4px&quot;&gt;&lt;br&gt;&lt;/p&gt;" style="verticalAlign=top;align=left;overflow=fill;fontSize=12;fontFamily=Helvetica;html=1;" parent="1" vertex="1"><mxGeometry x="40" y="240" width="500" height="140" as="geometry"/></mxCell><mxCell id="1KylA9_HLu-eFx_0VKW5-5" value="Location" style="swimlane;fontStyle=1;align=center;verticalAlign=top;childLayout=stackLayout;horizontal=1;startSize=26;horizontalStack=0;resizeParent=1;resizeParentMax=0;resizeLast=0;collapsible=1;marginBottom=0;" parent="1" vertex="1"><mxGeometry x="750" y="40" width="170" height="164" as="geometry"/></mxCell><mxCell id="1KylA9_HLu-eFx_0VKW5-6" value="+ city: String?&#10;+ country: String?&#10;+ state: String?&#10;+ zipCode: String?&#10;+ latitude: Float?&#10;+ longitude: Float?" style="text;strokeColor=none;fillColor=none;align=left;verticalAlign=top;spacingLeft=4;spacingRight=4;overflow=hidden;rotatable=0;points=[[0,0.5],[1,0.5]];portConstraint=eastwest;" parent="1KylA9_HLu-eFx_0VKW5-5" vertex="1"><mxGeometry y="26" width="170" height="104" as="geometry"/></mxCell><mxCell id="1KylA9_HLu-eFx_0VKW5-7" value="" style="line;strokeWidth=1;fillColor=none;align=left;verticalAlign=middle;spacingTop=-1;spacingLeft=3;spacingRight=3;rotatable=0;labelPosition=right;points=[];portConstraint=eastwest;" parent="1KylA9_HLu-eFx_0VKW5-5" vertex="1"><mxGeometry y="130" width="170" height="8" as="geometry"/></mxCell><mxCell id="1KylA9_HLu-eFx_0VKW5-8" value="+ method(type): type" style="text;strokeColor=none;fillColor=none;align=left;verticalAlign=top;spacingLeft=4;spacingRight=4;overflow=hidden;rotatable=0;points=[[0,0.5],[1,0.5]];portConstraint=eastwest;" parent="1KylA9_HLu-eFx_0VKW5-5" vertex="1"><mxGeometry y="138" width="170" height="26" as="geometry"/></mxCell><mxCell id="1KylA9_HLu-eFx_0VKW5-1" value="Weather" style="swimlane;fontStyle=1;align=center;verticalAlign=top;childLayout=stackLayout;horizontal=1;startSize=26;horizontalStack=0;resizeParent=1;resizeParentMax=0;resizeLast=0;collapsible=1;marginBottom=0;" parent="1" vertex="1"><mxGeometry x="540" y="40" width="190" height="94" as="geometry"/></mxCell><mxCell id="1KylA9_HLu-eFx_0VKW5-2" value="+ temperature: Int?&#10;+ ...&#10;" style="text;strokeColor=none;fillColor=none;align=left;verticalAlign=top;spacingLeft=4;spacingRight=4;overflow=hidden;rotatable=0;points=[[0,0.5],[1,0.5]];portConstraint=eastwest;" parent="1KylA9_HLu-eFx_0VKW5-1" vertex="1"><mxGeometry y="26" width="190" height="34" as="geometry"/></mxCell><mxCell id="1KylA9_HLu-eFx_0VKW5-3" value="" style="line;strokeWidth=1;fillColor=none;align=left;verticalAlign=middle;spacingTop=-1;spacingLeft=3;spacingRight=3;rotatable=0;labelPosition=right;points=[];portConstraint=eastwest;" parent="1KylA9_HLu-eFx_0VKW5-1" vertex="1"><mxGeometry y="60" width="190" height="8" as="geometry"/></mxCell><mxCell id="1KylA9_HLu-eFx_0VKW5-4" value="+ getWeather(Location): Weather" style="text;strokeColor=none;fillColor=none;align=left;verticalAlign=top;spacingLeft=4;spacingRight=4;overflow=hidden;rotatable=0;points=[[0,0.5],[1,0.5]];portConstraint=eastwest;" parent="1KylA9_HLu-eFx_0VKW5-1" vertex="1"><mxGeometry y="68" width="190" height="26" as="geometry"/></mxCell></root></mxGraphModel></diagram></mxfile>